<mxfile host="app.diagrams.net" modified="2023-08-09T19:37:47.729Z" agent="Mozilla/5.0 (Windows NT 10.0; Win64; x64) AppleWebKit/537.36 (KHTML, like Gecko) Chrome/115.0.0.0 Safari/537.36" etag="IWbs_bsslFDkjmmF1qHZ" version="21.6.7" type="device">
  <diagram name="PÃ¡gina-1" id="3N3heLaXxTLqUHcA48gE">
    <mxGraphModel dx="662" dy="396" grid="1" gridSize="10" guides="1" tooltips="1" connect="1" arrows="1" fold="1" page="1" pageScale="1" pageWidth="827" pageHeight="1169" math="0" shadow="0">
      <root>
        <mxCell id="0" />
        <mxCell id="1" parent="0" />
        <mxCell id="3JPqtt5QHXB6knXrgAVu-4" style="edgeStyle=orthogonalEdgeStyle;rounded=0;orthogonalLoop=1;jettySize=auto;html=1;entryX=0;entryY=0.5;entryDx=0;entryDy=0;endArrow=none;endFill=0;" edge="1" parent="1" source="3JPqtt5QHXB6knXrgAVu-1" target="3JPqtt5QHXB6knXrgAVu-2">
          <mxGeometry relative="1" as="geometry" />
        </mxCell>
        <mxCell id="3JPqtt5QHXB6knXrgAVu-1" value="" style="rounded=0;whiteSpace=wrap;html=1;" vertex="1" parent="1">
          <mxGeometry x="60" y="50" width="120" height="60" as="geometry" />
        </mxCell>
        <mxCell id="3JPqtt5QHXB6knXrgAVu-5" style="edgeStyle=orthogonalEdgeStyle;rounded=0;orthogonalLoop=1;jettySize=auto;html=1;" edge="1" parent="1" source="3JPqtt5QHXB6knXrgAVu-2">
          <mxGeometry relative="1" as="geometry">
            <mxPoint x="350" y="80" as="targetPoint" />
          </mxGeometry>
        </mxCell>
        <mxCell id="3JPqtt5QHXB6knXrgAVu-2" value="" style="rhombus;whiteSpace=wrap;html=1;" vertex="1" parent="1">
          <mxGeometry x="240" y="40" width="80" height="80" as="geometry" />
        </mxCell>
        <mxCell id="3JPqtt5QHXB6knXrgAVu-6" style="edgeStyle=orthogonalEdgeStyle;rounded=0;orthogonalLoop=1;jettySize=auto;html=1;" edge="1" parent="1" source="3JPqtt5QHXB6knXrgAVu-3">
          <mxGeometry relative="1" as="geometry">
            <mxPoint x="350" y="80" as="targetPoint" />
          </mxGeometry>
        </mxCell>
        <mxCell id="3JPqtt5QHXB6knXrgAVu-8" style="edgeStyle=orthogonalEdgeStyle;rounded=0;orthogonalLoop=1;jettySize=auto;html=1;endArrow=none;endFill=0;" edge="1" parent="1" source="3JPqtt5QHXB6knXrgAVu-3" target="3JPqtt5QHXB6knXrgAVu-7">
          <mxGeometry relative="1" as="geometry" />
        </mxCell>
        <mxCell id="3JPqtt5QHXB6knXrgAVu-3" value="" style="rounded=0;whiteSpace=wrap;html=1;" vertex="1" parent="1">
          <mxGeometry x="380" y="50" width="120" height="60" as="geometry" />
        </mxCell>
        <mxCell id="3JPqtt5QHXB6knXrgAVu-10" style="edgeStyle=orthogonalEdgeStyle;rounded=0;orthogonalLoop=1;jettySize=auto;html=1;entryX=0.5;entryY=0;entryDx=0;entryDy=0;endArrow=none;endFill=0;" edge="1" parent="1" source="3JPqtt5QHXB6knXrgAVu-7" target="3JPqtt5QHXB6knXrgAVu-9">
          <mxGeometry relative="1" as="geometry" />
        </mxCell>
        <mxCell id="3JPqtt5QHXB6knXrgAVu-7" value="" style="rhombus;whiteSpace=wrap;html=1;" vertex="1" parent="1">
          <mxGeometry x="400" y="160" width="80" height="80" as="geometry" />
        </mxCell>
        <mxCell id="3JPqtt5QHXB6knXrgAVu-28" style="edgeStyle=orthogonalEdgeStyle;rounded=0;orthogonalLoop=1;jettySize=auto;html=1;entryX=0;entryY=0.5;entryDx=0;entryDy=0;endArrow=none;endFill=0;" edge="1" parent="1" source="3JPqtt5QHXB6knXrgAVu-9" target="3JPqtt5QHXB6knXrgAVu-27">
          <mxGeometry relative="1" as="geometry" />
        </mxCell>
        <mxCell id="3JPqtt5QHXB6knXrgAVu-9" value="" style="rounded=0;whiteSpace=wrap;html=1;" vertex="1" parent="1">
          <mxGeometry x="380" y="300" width="120" height="60" as="geometry" />
        </mxCell>
        <mxCell id="3JPqtt5QHXB6knXrgAVu-11" value="" style="rounded=0;whiteSpace=wrap;html=1;" vertex="1" parent="1">
          <mxGeometry x="680" y="300" width="120" height="60" as="geometry" />
        </mxCell>
        <mxCell id="3JPqtt5QHXB6knXrgAVu-29" style="edgeStyle=orthogonalEdgeStyle;rounded=0;orthogonalLoop=1;jettySize=auto;html=1;entryX=0;entryY=0.5;entryDx=0;entryDy=0;endArrow=none;endFill=0;" edge="1" parent="1" source="3JPqtt5QHXB6knXrgAVu-27" target="3JPqtt5QHXB6knXrgAVu-11">
          <mxGeometry relative="1" as="geometry" />
        </mxCell>
        <mxCell id="3JPqtt5QHXB6knXrgAVu-27" value="" style="rhombus;whiteSpace=wrap;html=1;" vertex="1" parent="1">
          <mxGeometry x="550" y="290" width="80" height="80" as="geometry" />
        </mxCell>
      </root>
    </mxGraphModel>
  </diagram>
</mxfile>
